<?xml version="1.0" standalone="no"?><!DOCTYPE svg PUBLIC "-//W3C//DTD SVG 1.1//EN" "http://www.w3.org/Graphics/SVG/1.1/DTD/svg11.dtd"><svg t="1659855552239" class="icon" viewBox="0 0 1024 1024" version="1.1" xmlns="http://www.w3.org/2000/svg" p-id="2233" xmlns:xlink="http://www.w3.org/1999/xlink" width="200" height="200"><defs><style type="text/css"></style></defs><path d="M63.40661 62.365396l0 896.319016L957.685153 958.684412 957.685153 62.365396 63.40661 62.365396 63.40661 62.365396zM667.80195 806.481941c-9.82067 9.891278-25.795503 9.965979-35.716456 0.12689L353.457636 530.512632c-4.970198-4.92108-7.469112-11.434423-7.469112-17.917068 0-6.407943 2.446725-12.848633 7.315616-17.764596 0.105401-0.100284 0.232291-0.124843 0.327458-0.229221 0.404206-0.426719 0.50449-0.980327 0.933255-1.414209l276.111548-278.620695c9.815553-9.891278 25.790386-9.967002 35.710316-0.146333 9.891278 9.838066 9.967002 25.790386 0.148379 35.706223L406.730956 512.26606l260.913405 258.537288C677.535639 780.6189 677.587827 796.566104 667.80195 806.481941L667.80195 806.481941 667.80195 806.481941zM667.80195 806.481941" p-id="2234"></path></svg>