<?xml version="1.0" standalone="no"?><!DOCTYPE svg PUBLIC "-//W3C//DTD SVG 1.1//EN" "http://www.w3.org/Graphics/SVG/1.1/DTD/svg11.dtd"><svg t="1659665487878" class="icon" viewBox="0 0 1024 1024" version="1.1" xmlns="http://www.w3.org/2000/svg" p-id="3428" xmlns:xlink="http://www.w3.org/1999/xlink" width="200" height="200"><defs><style type="text/css"></style></defs><path d="M448.6 386.3h308.8v261.1H448.6z" fill="#A5E8D0" p-id="3429"></path><path d="M952.7 326.8H830.3V99.4H235c-67.6 0-122.7 55-122.7 122.7v579.8c0 67.6 55 122.7 122.7 122.7h595.3V697.2h122.4V326.8zM757.6 851.9H235c-27.6 0-50-22.4-50-50V222.1c0-27.6 22.4-50 50-50h522.6v154.6H561.1c-102.1 0-185.2 83.1-185.2 185.2S459 697.1 561.1 697.1h196.4v154.8zM880 624.5H561.1C499 624.5 448.6 574 448.6 512s50.5-112.5 112.5-112.5H880v225z" fill="#2A2A2A" p-id="3430"></path><path d="M548.6 512m-36.4 0a36.4 36.4 0 1 0 72.8 0 36.4 36.4 0 1 0-72.8 0Z" fill="#2A2A2A" p-id="3431"></path></svg>