<?xml version="1.0" standalone="no"?><!DOCTYPE svg PUBLIC "-//W3C//DTD SVG 1.1//EN" "http://www.w3.org/Graphics/SVG/1.1/DTD/svg11.dtd"><svg t="1659845426436" class="icon" viewBox="0 0 1024 1024" version="1.1" xmlns="http://www.w3.org/2000/svg" p-id="8695" xmlns:xlink="http://www.w3.org/1999/xlink" width="200" height="200"><defs><style type="text/css"></style></defs><path d="M63.40661 62.365396l0 896.320039 894.27752 0L957.68413 62.365396 63.40661 62.365396 63.40661 62.365396zM353.289814 806.481941c-9.7869-9.915837-9.738805-25.862018 0.152473-35.678594l260.917498-258.536264-259.808234-262.140349c-9.815553-9.915837-9.738805-25.867134 0.152473-35.706223 9.921977-9.82067 25.89067-9.743922 35.712363 0.148379l276.106432 278.619672c0.427742 0.432859 0.528026 0.985444 0.931209 1.414209 0.101307 0.104377 0.230244 0.127913 0.329505 0.228197 4.869914 4.922103 7.320733 11.357675 7.320733 17.765619 0 6.482645-2.498914 12.994965-7.474228 17.916045l-278.627858 276.098245C379.0802 816.449967 363.110483 816.374242 353.289814 806.481941L353.289814 806.481941 353.289814 806.481941zM353.289814 806.481941" p-id="8696"></path></svg>