<?xml version="1.0" standalone="no"?><!DOCTYPE svg PUBLIC "-//W3C//DTD SVG 1.1//EN" "http://www.w3.org/Graphics/SVG/1.1/DTD/svg11.dtd"><svg t="1659665537355" class="icon" viewBox="0 0 1024 1024" version="1.1" xmlns="http://www.w3.org/2000/svg" p-id="6383" xmlns:xlink="http://www.w3.org/1999/xlink" width="200" height="200"><defs><style type="text/css"></style></defs><path d="M900.7 812.3H271c-52.8 0-95.6-42.8-95.6-95.6V168.2c0-26.6-21.5-48.1-48.1-48.1s-48.1 21.5-48.1 48.1v548.6c0 105.9 85.8 191.7 191.7 191.7h629.7c26.6 0 48.1-21.5 48.1-48.1 0.1-26.5-21.5-48.1-48-48.1z" p-id="6384"></path><path d="M285.5 720.9h101.4c20.9 0 37.9-17 37.9-37.9V407.8c0-20.9-17-37.9-37.9-37.9H285.5c-20.9 0-37.9 17-37.9 37.9V683c0 20.9 17 37.9 37.9 37.9zM553.2 720.9H631c27.4 0 49.7-22.3 49.7-49.7V167.6c0-27.4-22.3-49.7-49.7-49.7h-77.8c-27.5 0-49.7 22.3-49.7 49.7v503.6c0 27.4 22.3 49.7 49.7 49.7zM802 720.9h92.1c23.5 0 42.6-19.1 42.6-42.6V321.2c0-23.5-19.1-42.6-42.6-42.6H802c-23.5 0-42.6 19.1-42.6 42.6v357.1c0 23.5 19.1 42.6 42.6 42.6z" p-id="6385"></path></svg>